<svg width="375" height="445" viewBox="0 0 375 445" fill="none" xmlns="http://www.w3.org/2000/svg">
<rect width="375" height="445" fill="#EFEFEF"/>
<rect x="30" y="136" width="315" height="172" rx="15" fill="#EFEFEF"/>
<path d="M297 206C309.703 206 320 195.926 320 183.5C320 171.074 309.703 161 297 161C284.297 161 274 171.074 274 183.5C274 195.926 284.297 206 297 206Z" fill="white"/>
<path d="M136.74 181.986C132.767 176.206 124.233 176.206 120.26 181.986L56.7699 274.335C52.2083 280.97 56.9585 290 65.0103 290H191.99C200.041 290 204.792 280.97 200.23 274.335L136.74 181.986Z" fill="white"/>
<path d="M243.849 223.942C239.845 218.87 232.155 218.87 228.151 223.942L188.787 273.804C183.609 280.361 188.28 290 196.635 290H275.365C283.72 290 288.391 280.361 283.213 273.804L243.849 223.942Z" fill="white"/>
</svg>
