<svg width="32" height="28" viewBox="0 0 32 28" fill="none" xmlns="http://www.w3.org/2000/svg">
<path d="M31.7836 8.74999C31.7836 13.2074 29.1772 17.7924 24.0366 22.3775C21.705 24.449 19.1691 26.2828 16.4671 27.8512C16.2913 27.9488 16.0933 28 15.8918 28C15.6904 28 15.4923 27.9488 15.3165 27.8512C14.6912 27.5041 0 19.23 0 8.74999C0.000615661 6.9139 0.583812 5.1245 1.66706 3.63499C2.75031 2.14548 4.27876 1.03129 6.03613 0.450093C7.79349 -0.131109 9.69077 -0.149892 11.4595 0.396402C13.2282 0.942695 14.7788 2.0264 15.8919 3.49417C17.0049 2.0264 18.5556 0.942695 20.3243 0.396402C22.093 -0.149892 23.9903 -0.131109 25.7477 0.450093C27.505 1.03129 29.0335 2.14548 30.1167 3.63499C31.2 5.1245 31.7832 6.9139 31.7838 8.74999H31.7836Z" fill="#121217"/>
</svg>
