<svg width="30" height="28" viewBox="0 0 30 28" fill="none" xmlns="http://www.w3.org/2000/svg">
<path d="M29.3791 13.7706L15.7485 0.306641C15.6504 0.209437 15.5338 0.132319 15.4055 0.0797013C15.2771 0.0270838 15.1396 0 15.0006 0C14.8617 0 14.7241 0.0270838 14.5958 0.0797013C14.4675 0.132319 14.3509 0.209437 14.2527 0.306641L0.62213 13.7706C0.225026 14.1631 0 14.6963 0 15.2524C0 16.4071 0.949741 17.3459 2.11789 17.3459H3.55409V26.9532C3.55409 27.5322 4.0273 28 4.61303 28H12.8827V20.6727H16.589V28H25.3882C25.9739 28 26.4472 27.5322 26.4472 26.9532V17.3459H27.8833C28.4459 17.3459 28.9853 17.1268 29.3824 16.731C30.2064 15.9132 30.2064 14.5884 29.3791 13.7706Z" fill="#121217"/>
</svg>
